<svg width="22" height="22" viewBox="0 0 22 22" fill="none" xmlns="http://www.w3.org/2000/svg">
<path d="M22 11.2123C22 10.3105 21.9251 9.65235 21.763 8.96987H11.2245V13.0404H17.4104C17.2857 14.052 16.6122 15.5754 15.1156 16.5991L15.0946 16.7353L18.4267 19.2578L18.6576 19.2803C20.7777 17.3669 22 14.5516 22 11.2123Z" fill="white"/>
<path d="M11.2245 21.9371C14.2551 21.9371 16.7993 20.9621 18.6576 19.2803L15.1156 16.5991C14.1678 17.245 12.8957 17.6959 11.2245 17.6959C8.25626 17.6959 5.737 15.7826 4.83896 13.1379L4.70732 13.1488L1.24256 15.7691L1.19725 15.8922C3.04304 19.4752 6.83443 21.9371 11.2245 21.9371Z" fill="white"/>
<path d="M4.83896 13.1379C4.602 12.4554 4.46486 11.7241 4.46486 10.9686C4.46486 10.2129 4.602 9.4817 4.82649 8.79922L4.82021 8.65387L1.31203 5.9915L1.19725 6.04486C0.436513 7.53173 0 9.20142 0 10.9686C0 12.7357 0.436513 14.4053 1.19725 15.8922L4.83896 13.1379Z" fill="white"/>
<path d="M11.2245 4.24115C13.3322 4.24115 14.7539 5.13082 15.5646 5.8743L18.7324 2.85183C16.7869 1.08467 14.2551 0 11.2245 0C6.83443 0 3.04304 2.46182 1.19725 6.04486L4.82649 8.79922C5.737 6.15458 8.25626 4.24115 11.2245 4.24115Z" fill="white"/>
</svg>
