<svg width="36" height="33" viewBox="0 0 36 33" fill="none" xmlns="http://www.w3.org/2000/svg">
<g filter="url(#filter0_d_0_13)">
<path d="M18 25C25.732 25 32 19.4036 32 12.5C32 5.59644 25.732 0 18 0C10.268 0 4 5.59644 4 12.5C4 19.4036 10.268 25 18 25Z" fill="#3C5A9A"/>
<path d="M19.4509 3.83683C17.6104 3.83683 15.5633 4.52796 15.5633 6.90992C15.5723 7.73989 15.5633 8.53475 15.5633 9.42932H13.4342V12.4544H15.6292V21.1631H19.6627V12.3969H22.3249L22.5658 9.42083H19.5932C19.5932 9.42083 19.5998 8.09694 19.5932 7.71247C19.5932 6.77117 20.6902 6.82508 20.7562 6.82508C21.2782 6.82508 22.2932 6.82644 22.5537 6.82508V3.83683H19.4509Z" fill="white"/>
</g>
<defs>
<filter id="filter0_d_0_13" x="0" y="0" width="36" height="33" filterUnits="userSpaceOnUse" color-interpolation-filters="sRGB">
<feFlood flood-opacity="0" result="BackgroundImageFix"/>
<feColorMatrix in="SourceAlpha" type="matrix" values="0 0 0 0 0 0 0 0 0 0 0 0 0 0 0 0 0 0 127 0" result="hardAlpha"/>
<feOffset dy="4"/>
<feGaussianBlur stdDeviation="2"/>
<feComposite in2="hardAlpha" operator="out"/>
<feColorMatrix type="matrix" values="0 0 0 0 0 0 0 0 0 0 0 0 0 0 0 0 0 0 0.25 0"/>
<feBlend mode="normal" in2="BackgroundImageFix" result="effect1_dropShadow_0_13"/>
<feBlend mode="normal" in="SourceGraphic" in2="effect1_dropShadow_0_13" result="shape"/>
</filter>
</defs>
</svg>
