<svg width="21" height="16" viewBox="0 0 21 16" fill="none" xmlns="http://www.w3.org/2000/svg">
<path d="M7.70625 7.85137C7.70625 8.56676 7.99044 9.25286 8.49631 9.75872C9.00217 10.2646 9.68826 10.5488 10.4037 10.5488C11.1191 10.5488 11.8052 10.2646 12.311 9.75872C12.8169 9.25286 13.1011 8.56676 13.1011 7.85137C13.1011 7.13597 12.8169 6.44988 12.311 5.94402C11.8052 5.43816 11.1191 5.15397 10.4037 5.15397C9.68826 5.15397 9.00217 5.43816 8.49631 5.94402C7.99044 6.44988 7.70625 7.13597 7.70625 7.85137ZM20.8609 7.23C18.5778 2.42044 15.1265 0 10.5 0C5.87106 0 2.42223 2.42044 0.139074 7.23241C0.0474952 7.42633 0 7.63812 0 7.85257C0 8.06703 0.0474952 8.27882 0.139074 8.47273C2.42223 13.2823 5.87346 15.7027 10.5 15.7027C15.1289 15.7027 18.5778 13.2823 20.8609 8.47033C21.0464 8.08017 21.0464 7.62739 20.8609 7.23ZM10.4037 12.0901C8.0627 12.0901 6.16488 10.1923 6.16488 7.85137C6.16488 5.51041 8.0627 3.61259 10.4037 3.61259C12.7446 3.61259 14.6424 5.51041 14.6424 7.85137C14.6424 10.1923 12.7446 12.0901 10.4037 12.0901Z" fill="black" fill-opacity="0.67"/>
</svg>
